<svg width="247" height="198" viewBox="0 0 247 198" fill="none" xmlns="http://www.w3.org/2000/svg">
<path d="M154.613 34.2096C152.999 36.9048 148.922 37.1351 145.836 37.7559C140.979 38.7134 136.014 39.139 131.05 39.0146C127.451 38.9257 123.799 38.5361 120.501 37.1176C117.203 35.6991 113.125 33.2882 113.143 29.689C113.16 27.9867 113.462 26.338 114.012 24.7602C115.767 19.5477 120.057 15.1328 124.72 11.9946C130.819 7.91697 137.822 5.27526 143.744 0.931335C141.901 4.65493 143.301 9.22909 145.624 12.6684C147.946 16.1258 151.12 18.9268 153.354 22.4376C153.851 23.2353 154.312 24.0864 154.666 24.9729C155.924 28.0042 156.244 31.4435 154.613 34.2096Z" fill="#FFBEB2"/>
<path opacity="0.15" d="M154.613 34.2097C152.999 36.9049 148.922 37.1351 145.836 37.756C140.979 38.7135 136.014 39.139 131.05 39.0147C127.451 38.9257 123.799 38.5362 120.501 37.1177C117.203 35.6992 113.125 33.2882 113.143 29.689C113.16 27.9868 113.462 26.3381 114.012 24.7602C116.742 23.8737 119.773 23.5016 121.901 23.5016C129.897 23.537 137.539 28.0228 145.499 27.2252C148.619 26.8886 151.616 25.7712 154.666 24.9736C155.924 28.0043 156.244 31.4436 154.613 34.2097Z" fill="#FF2B06"/>
<path d="M170.552 53.3756C168.601 55.4144 165.783 56.3719 163.052 57.1701C146.847 61.9041 129.242 63.6767 113.196 58.4462C106.441 56.2301 97.9844 49.8828 100.165 41.6385C100.839 39.1206 102.168 36.6742 103.924 34.511C107.452 30.1671 112.735 26.958 117.912 26.5329C125.217 25.9126 132.238 29.6177 139.56 29.813C143.372 29.9014 147.149 29.0508 150.961 29.0683C156.794 29.0863 162.592 31.2135 167.024 34.9726C167.095 35.0255 167.166 35.0964 167.237 35.1673C169.826 37.4015 171.953 40.256 172.804 43.5709C173.672 46.9573 172.981 50.8577 170.552 53.3756Z" fill="#FFBEB2"/>
<path opacity="0.15" d="M170.552 53.3753C168.601 55.4142 165.783 56.3717 163.052 57.1699C146.847 61.9039 129.242 63.6765 113.196 58.446C106.441 56.2298 97.9844 49.8825 100.165 41.6382C100.839 39.1204 102.168 36.674 103.924 34.5107C103.977 34.5107 104.047 34.4928 104.101 34.4928C110.165 33.8899 116.14 35.9822 122.15 37.0281C127.168 37.9146 132.292 38.0565 137.344 37.4716C147.362 36.3194 157.769 32.383 167.237 35.1665C169.826 37.4007 171.953 40.2552 172.804 43.5701C173.672 46.9571 172.981 50.8575 170.552 53.3753Z" fill="#FF2B06"/>
<path d="M185.341 58.961C155.289 65.8048 124.333 70.29 93.8553 74.9357C92.0112 75.2194 90.1677 75.5031 88.3056 75.7868C85.9656 76.1414 83.6251 76.496 81.2845 76.8507C80.7171 76.9396 80.1143 77.028 79.5469 76.9041C78.0934 76.603 77.1889 74.9891 77.1889 73.5002C77.1889 72.4718 77.8981 71.798 78.412 71.0004C78.6603 70.6458 78.8556 70.2557 78.926 69.7947C79.5114 65.9827 80.4154 62.1712 81.7805 58.5715C81.7985 58.5895 81.7985 58.5895 81.7985 58.5715C82.9333 55.5577 84.4222 52.7032 86.3197 50.079C89.848 45.2031 94.9721 41.3027 100.769 39.8313C101.78 39.5651 102.808 39.3703 103.854 39.2639C109.935 38.661 115.91 40.7533 121.921 41.7992C126.92 42.6678 132.062 42.8276 137.115 42.2428C147.859 41.0016 159.082 36.5513 169.099 40.6649C170.287 41.1614 171.404 41.7463 172.45 42.4201C174.861 43.9624 176.971 45.9658 178.815 48.2534C181.44 51.4615 183.549 55.2374 185.341 58.961Z" fill="#FFBEB2"/>
<path opacity="0.15" d="M185.341 58.9616C155.289 65.8054 124.333 70.2906 93.8553 74.9362C92.0113 75.22 90.1678 75.5037 88.3057 75.7874C84.9018 74.4223 81.5863 72.8439 78.4127 71.0004C78.6609 70.6458 78.8562 70.2557 78.9266 69.7947C79.512 65.9827 80.416 62.1713 81.7811 58.5715C81.7991 58.5895 81.7991 58.5895 81.7991 58.5715C82.7386 57.8977 83.7141 57.2774 84.7245 56.728C90.1143 53.8206 96.3197 52.7742 102.419 52.4375C102.755 52.4201 103.075 52.4021 103.412 52.4021H103.43C110.043 52.0829 116.656 52.5439 123.145 53.7851C124.581 54.0514 126.035 54.3525 127.454 54.0868C128.89 53.8031 130.149 52.952 131.39 52.2073C136.354 49.193 142.046 47.314 147.843 47.225C153.641 47.1361 159.526 48.9093 164.048 52.5439C166.76 50.8772 169.774 49.654 172.877 48.9622C174.827 48.5192 176.831 48.2709 178.816 48.2529C181.44 51.462 183.55 55.238 185.341 58.9616Z" fill="#FFA368"/>
<path d="M219.877 115.737C219.847 116.352 219.803 116.953 219.757 117.539C219.232 125.842 218.301 131.622 218.301 131.622L186.801 132.703L184.774 132.778L40.0497 137.763C40.0497 137.763 40.1398 129.851 40.6204 119.325C40.6351 118.695 40.6652 118.049 40.7104 117.389C40.9805 111.743 41.3711 105.467 41.9118 99.3259C43.1432 85.4676 45.1547 72.27 48.4882 68.3663C61.8959 52.6612 199.143 49.5831 212.175 69.1323C215.914 74.7628 218.016 82.33 219.112 90.2425C220.313 99.0259 220.283 108.245 219.877 115.737Z" fill="#FFA368"/>
<path d="M219.877 115.736C219.847 116.352 219.802 116.952 219.757 117.538C214.862 113.544 207.055 113.934 201.56 116.982C195.043 120.571 190.479 127.192 186.801 132.703C186.651 132.928 186.501 133.138 186.35 133.364C186.215 133.589 186.005 133.709 185.705 133.694C185.449 133.694 185.209 133.544 185.074 133.319C184.969 133.139 184.864 132.958 184.774 132.778C181.921 127.778 179.203 123.364 175.33 119.941C170.81 115.932 165.27 114.145 160.495 115.181C154.054 116.577 149.009 122.613 145.511 133.123C145.406 133.438 145.121 133.648 144.76 133.634C144.43 133.619 144.145 133.378 144.07 133.048C142.794 127.478 140.586 122.928 137.478 119.505C133.92 115.572 129.01 113.229 124.341 113.229C121.969 113.229 119.566 113.815 117.299 114.896C115.032 115.978 112.9 117.554 111.038 119.566C107.93 122.944 105.603 127.373 103.951 133.124C103.861 133.454 103.546 133.679 103.201 133.665C102.855 133.65 102.57 133.395 102.495 133.064C100.874 125.166 98.5163 117.464 92.2252 114.551C86.4147 111.849 79.613 114.657 75.7693 118.425C71.1297 122.944 68.7875 129.46 67.2714 134.641C67.1661 134.956 66.8813 135.181 66.5506 135.181C66.5206 135.181 66.5054 135.181 66.4754 135.166C66.13 135.136 65.8447 134.866 65.7999 134.521C65.3045 130.302 63.3077 120.122 55.5599 116.759C50.9355 114.762 44.9898 115.798 40.6208 119.326C40.6355 118.696 40.6655 118.05 40.7108 117.389C45.3952 114.131 51.4009 113.305 56.1459 115.377C61.4309 117.675 65.2145 123.335 66.7912 131.157C68.368 126.458 70.7249 121.233 74.7185 117.344C79.8688 112.329 87.3308 110.618 92.8559 113.185C98.9817 116.023 101.654 122.735 103.366 130.016C105.003 125.317 107.165 121.548 109.942 118.56C113.936 114.221 119.176 111.729 124.341 111.729C126.924 111.729 129.506 112.344 131.939 113.5C134.371 114.656 136.638 116.338 138.59 118.5C141.413 121.607 143.53 125.572 144.911 130.316C148.56 120.707 153.68 115.121 160.181 113.71C165.421 112.584 171.457 114.491 176.336 118.815C180.24 122.269 182.973 126.608 185.78 131.517C189.519 125.947 194.158 119.356 200.825 115.677C206.5 112.523 214.457 112.028 219.877 115.736Z" fill="#FFE4E0"/>
<path d="M151.638 118.588C151.638 118.98 151.625 119.36 151.587 119.739C151.284 123.143 149.689 126.167 147.273 128.305C145.008 130.342 142.034 131.582 138.745 131.62H138.606C131.407 131.62 125.574 125.787 125.574 118.588C125.574 115.944 126.359 113.477 127.725 111.414C130.053 107.884 134.064 105.556 138.607 105.556C145.805 105.556 151.638 111.389 151.638 118.588Z" fill="#C23001"/>
<path opacity="0.35" d="M151.587 119.739C151.283 123.143 149.688 126.167 147.272 128.305C144.716 130.038 141.781 131.24 138.745 131.62H138.606C131.407 131.62 125.574 125.787 125.574 118.588C125.574 115.944 126.358 113.477 127.725 111.414C129.117 112.882 130.711 114.122 132.444 115.172C134.406 116.362 136.518 117.273 138.707 117.956C142.857 119.246 147.221 119.689 151.587 119.739Z" fill="#C23001"/>
<path d="M146.67 121.142C146.779 121.685 147.016 122.275 147.529 122.484C147.913 122.64 148.358 122.536 148.723 122.341C149.464 121.945 149.975 121.202 150.248 120.407C150.521 119.612 150.579 118.761 150.601 117.921C150.617 117.329 150.611 116.718 150.375 116.176C149.52 114.218 148.072 115.684 147.409 116.838C146.67 118.125 146.379 119.68 146.67 121.142Z" fill="#FFE4E0"/>
<path d="M140.867 108.472C140.691 108.866 140.801 109.343 141.049 109.696C141.298 110.049 141.666 110.298 142.04 110.513C142.882 110.995 143.798 111.345 144.746 111.546C145.144 111.631 145.559 111.688 145.956 111.597C146.353 111.506 146.73 111.238 146.85 110.849C146.968 110.469 146.824 110.055 146.625 109.71C145.878 108.413 141.833 106.301 140.867 108.472Z" fill="#923EFF"/>
<path d="M136.191 127.241C133.441 123.672 129.484 121.049 125.125 119.908C120.766 118.767 116.031 119.114 111.885 120.878C112.964 124.314 116.186 126.386 119.625 127.456C124.619 129.01 131.345 129.208 136.191 127.241Z" fill="#E08E80"/>
<path d="M140.826 129.151C145.261 129.948 149.954 129.234 153.95 127.151C157.946 125.069 161.22 121.632 163.107 117.54C159.999 115.718 156.221 116.347 152.954 117.865C148.211 120.068 143.095 124.439 140.826 129.151Z" fill="#E08E80"/>
<path d="M83.7849 118.588C83.7849 118.98 83.7724 119.36 83.7342 119.739C83.4309 123.143 81.8361 126.167 79.4197 128.305C77.155 130.342 74.1816 131.582 70.8923 131.62H70.7532C63.5542 131.62 57.7214 125.787 57.7214 118.588C57.7214 115.944 58.506 113.477 59.8721 111.414C62.2001 107.884 66.2107 105.556 70.7532 105.556C77.9527 105.556 83.7849 111.389 83.7849 118.588Z" fill="#C23001"/>
<path opacity="0.35" d="M83.735 119.739C83.4316 123.143 81.8369 126.167 79.4205 128.305C76.8645 130.038 73.9292 131.24 70.8931 131.62H70.754C63.555 131.62 57.7222 125.787 57.7222 118.588C57.7222 115.944 58.5067 113.476 59.8729 111.414C61.2646 112.882 62.8588 114.122 64.5922 115.172C66.5535 116.362 68.666 117.273 70.8549 117.956C75.0046 119.245 79.3698 119.688 83.735 119.739Z" fill="#C23001"/>
<path d="M78.819 121.142C78.9276 121.685 79.1643 122.275 79.6777 122.484C80.0613 122.64 80.5065 122.536 80.8715 122.341C81.6129 121.945 82.1241 121.202 82.3964 120.407C82.6692 119.612 82.7275 118.761 82.7499 117.921C82.7657 117.329 82.7603 116.718 82.524 116.176C81.6702 114.218 80.2211 115.684 79.5582 116.838C78.8184 118.125 78.5271 119.68 78.819 121.142Z" fill="#FFE4E0"/>
<path d="M73.0142 108.472C72.8386 108.866 72.9482 109.343 73.1965 109.696C73.4452 110.049 73.8135 110.298 74.1878 110.513C75.0291 110.995 75.9457 111.345 76.8939 111.546C77.2916 111.631 77.7068 111.688 78.1034 111.597C78.5001 111.506 78.8771 111.238 78.9976 110.849C79.1155 110.468 78.9715 110.055 78.7729 109.71C78.0254 108.413 73.981 106.301 73.0142 108.472Z" fill="#923EFF"/>
<path d="M68.339 127.241C65.5892 123.672 61.6321 121.049 57.2729 119.908C52.9137 118.767 48.1797 119.114 44.0333 120.878C45.1119 124.314 48.3341 126.386 51.7735 127.456C56.7672 129.01 63.4931 129.208 68.339 127.241Z" fill="#E08E80"/>
<path d="M72.9738 129.151C77.4088 129.948 82.1013 129.233 86.0977 127.151C90.0936 125.068 93.3682 121.632 95.2548 117.539C92.1472 115.718 88.369 116.347 85.1021 117.865C80.3588 120.068 75.2434 124.439 72.9738 129.151Z" fill="#E08E80"/>
<path d="M209.155 118.083C209.155 118.475 209.142 118.855 209.104 119.235C208.801 122.638 207.206 125.662 204.79 127.8C202.525 129.838 199.552 131.077 196.262 131.115H196.123C188.924 131.115 183.091 125.283 183.091 118.084C183.091 115.439 183.876 112.972 185.242 110.91C187.57 107.38 191.581 105.052 196.123 105.052C203.322 105.052 209.155 110.884 209.155 118.083Z" fill="#C23001"/>
<path opacity="0.35" d="M209.104 119.234C208.801 122.638 207.206 125.662 204.79 127.8C202.234 129.533 199.298 130.735 196.262 131.115H196.123C188.924 131.115 183.091 125.282 183.091 118.083C183.091 115.439 183.876 112.972 185.242 110.909C186.634 112.377 188.228 113.617 189.961 114.667C191.923 115.857 194.035 116.768 196.224 117.451C200.374 118.741 204.739 119.184 209.104 119.234Z" fill="#C23001"/>
<path d="M204.188 120.637C204.296 121.181 204.533 121.771 205.047 121.98C205.43 122.136 205.875 122.032 206.24 121.837C206.982 121.441 207.493 120.698 207.766 119.903C208.039 119.108 208.097 118.257 208.119 117.416C208.135 116.825 208.129 116.213 207.893 115.672C207.039 113.714 205.59 115.18 204.927 116.334C204.187 117.621 203.897 119.176 204.188 120.637Z" fill="#FFE4E0"/>
<path d="M198.384 107.967C198.209 108.361 198.318 108.838 198.566 109.191C198.815 109.544 199.183 109.793 199.558 110.008C200.399 110.49 201.316 110.84 202.264 111.041C202.662 111.126 203.077 111.184 203.473 111.092C203.87 111.001 204.247 110.733 204.368 110.344C204.486 109.964 204.341 109.55 204.143 109.205C203.395 107.908 199.351 105.796 198.384 107.967Z" fill="#923EFF"/>
<path d="M193.708 126.737C190.958 123.168 187.001 120.545 182.641 119.404C178.282 118.263 173.548 118.61 169.402 120.374C170.48 123.81 173.703 125.882 177.142 126.952C182.136 128.506 188.862 128.704 193.708 126.737Z" fill="#E08E80"/>
<path d="M198.343 128.646C202.777 129.443 207.47 128.728 211.466 126.646C215.462 124.564 218.736 121.127 220.623 117.035C217.515 115.213 213.737 115.842 210.47 117.36C205.728 119.563 200.612 123.934 198.343 128.646Z" fill="#E08E80"/>
<path d="M175.665 45.242C175.665 45.7074 175.65 46.158 175.605 46.6081C175.245 50.6471 173.353 54.2353 170.485 56.7728C167.797 59.1903 164.269 60.6618 160.366 60.707H160.2C151.657 60.707 144.735 53.7852 144.735 45.242C144.735 42.1038 145.666 39.1762 147.287 36.7287C150.05 32.5397 154.809 29.7769 160.2 29.7769C168.743 29.7775 175.665 36.6987 175.665 45.242Z" fill="#C23001"/>
<path opacity="0.35" d="M175.605 46.609C175.244 50.648 173.353 54.2362 170.485 56.7737C167.452 58.8306 163.968 60.2573 160.365 60.7079H160.2C151.657 60.7079 144.735 53.7861 144.735 45.2429C144.735 42.1047 145.666 39.1771 147.287 36.7296C148.939 38.4711 150.831 39.9425 152.888 41.1887C155.215 42.6001 157.722 43.6809 160.319 44.4916C165.245 46.0236 170.425 46.5485 175.605 46.609Z" fill="#C23001"/>
<path d="M169.771 48.2727C169.899 48.9176 170.18 49.6176 170.79 49.8653C171.245 50.0502 171.773 49.9269 172.206 49.6956C173.086 49.2258 173.692 48.3442 174.016 47.4009C174.339 46.457 174.409 45.4471 174.435 44.4498C174.454 43.7482 174.448 43.0226 174.167 42.3793C173.153 40.0557 171.434 41.7956 170.647 43.1655C169.77 44.6931 169.424 46.5383 169.771 48.2727Z" fill="#FFE4E0"/>
<path d="M162.883 33.2373C162.674 33.7054 162.804 34.2717 163.099 34.6902C163.395 35.1092 163.832 35.4049 164.276 35.6597C165.274 36.232 166.361 36.6472 167.487 36.8856C167.959 36.986 168.452 37.0547 168.922 36.9462C169.393 36.8381 169.841 36.5201 169.984 36.059C170.124 35.6073 169.952 35.1163 169.716 34.7065C168.829 33.168 164.03 30.6611 162.883 33.2373Z" fill="#923EFF"/>
<path d="M157.334 55.5116C154.071 51.2752 149.375 48.1637 144.203 46.8091C139.03 45.4549 133.412 45.8663 128.491 47.9597C129.772 52.0379 133.595 54.4963 137.676 55.7664C143.602 57.611 151.583 57.8456 157.334 55.5116Z" fill="#E08E80"/>
<path d="M162.835 57.7767C168.098 58.7233 173.667 57.8749 178.409 55.4034C183.151 52.9325 187.036 48.8537 189.275 43.9975C185.588 41.8359 181.104 42.5828 177.227 44.3832C171.599 46.9976 165.527 52.185 162.835 57.7767Z" fill="#E08E80"/>
<path opacity="0.23" d="M219.112 90.2425C216.335 90.9032 213.272 90.3178 211.29 88.2757C206.62 92.6748 199.849 94.7169 193.528 93.6508C187.192 92.5695 181.486 88.3958 178.529 82.6901C174.474 89.0265 163.919 89.5819 159.22 83.6961C155.586 89.8819 149.34 94.6416 142.254 95.7977C135.167 96.9385 127.419 94.1609 123.185 88.3657C114.447 97.4797 98.1414 97.6597 89.2075 88.7558C82.2109 96.8937 69.0133 98.8006 60.0047 92.9601C60.0047 93.1254 55.0497 97.3444 54.5543 97.6445C52.4974 98.9506 50.17 99.9419 47.7078 100.107C45.3656 100.257 43.4588 99.9714 41.9121 99.326C43.1434 85.4676 45.155 72.27 48.4885 68.3663C61.8962 52.6612 199.143 49.5831 212.176 69.1323C215.914 74.7628 218.016 82.33 219.112 90.2425Z" fill="#FFA368"/>
<path d="M246.288 127.028L197.611 141.201L196.575 144.745L196.5 145C195.569 148.198 192.626 150.405 189.292 150.405H77.6156L69.5677 140.061L40.4396 127.028H246.288V127.028Z" fill="#FFEFD7"/>
<path d="M197.611 141.201L196.574 144.745L159.083 141.201H197.611Z" fill="#550E68"/>
<path d="M65.0697 58.4643C58.3028 59.5822 51.7575 62.536 46.863 67.3409C41.9692 72.1458 38.8441 78.8658 38.9314 85.7237C38.9597 87.9552 39.4382 90.3988 41.1797 91.7944C41.9932 92.4464 43.0058 92.7994 44.0195 93.0427C50.6941 94.6467 58.2341 91.4943 61.7804 85.6162C62.9703 88.0479 65.2633 89.2902 67.797 90.2433C70.3307 91.1965 73.0832 91.4158 75.7898 91.3781C78.0709 91.3465 80.3994 91.1255 82.4825 90.1948C86.4652 88.4145 88.887 84.3969 91.0579 80.6122C93.8917 86.3288 100.751 89.4435 107.125 89.1538C113.498 88.8641 119.498 84.7695 122.303 79.0393C126.021 85.9845 135.193 90.3252 143.01 89.3535C150.828 88.3818 157.761 82.6505 160.563 75.2884C161.816 78.4429 165.308 80.3448 168.701 80.3688C172.095 80.3929 175.338 78.8074 177.959 76.6513C178.375 76.3086 178.804 75.9387 179.331 75.8269C180.681 75.5404 181.694 76.9797 182.395 78.168C185.279 83.0564 189.893 87.2012 195.469 88.2601C201.045 89.3191 207.467 86.6108 209.568 81.3389C210.238 85.3336 216.86 86.4226 220.337 84.3461C223.815 82.2696 225.092 77.6126 224.22 73.6571C223.125 68.6858 219.242 64.6828 214.753 62.2817C210.264 59.8812 205.182 58.862 200.166 57.9934C162.014 51.3886 122.903 51.8245 84.4002 55.9148C78.4561 56.5466 70.9674 57.4899 65.0697 58.4643Z" fill="#FFE4E0"/>
<path d="M60.7067 74.1385C58.9101 75.9351 56.6448 76.5822 55.6469 75.5843C54.6491 74.5864 55.2961 72.3206 57.0927 70.5246C58.8893 68.728 61.1546 68.0809 62.1524 69.0788C63.1503 70.0767 62.5027 72.3419 60.7067 74.1385Z" fill="#923EFF"/>
<path d="M187.355 69.0223C188.74 71.1528 188.903 73.5032 187.719 74.2724C186.536 75.0417 184.454 73.938 183.07 71.808C181.685 69.6775 181.522 67.3272 182.706 66.5584C183.889 65.7886 185.971 66.8918 187.355 69.0223Z" fill="#923EFF"/>
<path d="M126.642 63.2133C124.846 65.0099 122.581 65.657 121.583 64.6591C120.585 63.6613 121.232 61.3955 123.029 59.5989C124.825 57.8023 127.09 57.1552 128.088 58.1531C129.086 59.1515 128.439 61.4167 126.642 63.2133Z" fill="#923EFF"/>
<path d="M84.8394 67.6444C82.6391 66.3743 81.4279 64.3535 82.1333 63.1314C82.8387 61.9087 85.1951 61.948 87.3949 63.2181C89.5952 64.4883 90.8064 66.5091 90.101 67.7312C89.395 68.9538 87.0397 68.9146 84.8394 67.6444Z" fill="#C23001"/>
<path d="M207.51 71.6697C205.31 70.3996 204.099 68.3787 204.804 67.1566C205.51 65.9345 207.866 65.9733 210.066 67.2434C212.266 68.5135 213.477 70.5343 212.772 71.7564C212.067 72.9785 209.711 72.9398 207.51 71.6697Z" fill="#C23001"/>
<path d="M143.299 77.6118C141.099 76.3417 139.888 74.3209 140.593 73.0988C141.299 71.8767 143.655 71.9154 145.855 73.1855C148.055 74.4556 149.266 76.4765 148.561 77.6986C147.856 78.9207 145.5 78.8819 143.299 77.6118Z" fill="#C23001"/>
<path d="M107.417 80.1604C105.16 81.3268 102.805 81.2564 102.157 80.0027C101.508 78.7489 102.812 76.7865 105.07 75.62C107.327 74.453 109.681 74.524 110.329 75.7777C110.978 77.0314 109.673 78.9939 107.417 80.1604Z" fill="#FF9BBF"/>
<path d="M162.044 65.0176C159.787 66.1846 157.432 66.1136 156.784 64.8599C156.136 63.6062 157.44 61.6437 159.697 60.4772C161.954 59.3108 164.309 59.3812 164.957 60.6349C165.605 61.8887 164.3 63.8506 162.044 65.0176Z" fill="#FF9BBF"/>
<path d="M158.123 153.978C158.483 157.822 154.339 161.531 148.063 164.939H148.048C132.193 173.587 102.69 180.449 97.5545 183.376C91.4865 186.836 92.4004 191.407 80.385 198C41.4736 183.786 11.3695 151.292 0.449646 110.913C24.0024 102.193 47.2137 96.0449 63.7273 93.6498C75.9789 91.863 84.5375 92.1484 86.8196 94.9559C88.3511 96.8327 87.465 99.7756 85.2129 103.184C77.6457 114.58 54.6134 131.246 54.6134 131.246C54.6134 131.246 89.8825 134.309 110.332 132.267C128.8 130.405 146.953 126.246 153.213 130.195C153.889 130.615 155.06 140.269 152.342 143.167C150.105 145.569 147.643 147.086 147.643 147.086C147.643 147.086 152.027 147.131 155.135 149.188C155.15 149.188 155.15 149.188 155.15 149.188C156.697 150.224 157.898 151.726 158.123 153.978Z" fill="#FFBEB2"/>
<path d="M85.2127 103.183C81.3238 104.625 77.2402 105.48 73.1112 105.735C70.3784 105.916 67.3908 105.72 65.3334 103.933C62.7211 101.681 62.2552 97.0416 63.7272 93.6486C75.9788 91.8619 84.5373 92.1472 86.8195 94.9548C88.3509 96.8321 87.4649 99.775 85.2127 103.183Z" fill="#FFE4E0"/>
<path d="M152.342 143.167C149.369 144.654 145.916 145.164 142.643 144.548C140.721 144.188 138.694 143.288 137.913 141.5C137.312 140.134 137.582 138.543 138.243 137.221C139.685 134.354 142.763 132.672 145.81 131.651C147.732 131.02 150.615 130.254 153.212 130.194C153.888 130.615 154.414 131.125 154.804 131.756C157.462 136.08 155.06 140.269 152.342 143.167Z" fill="#FFE4E0"/>
<path d="M148.063 164.938H148.048C145.811 164.532 143.694 162.971 143.153 160.779C142.718 159.007 143.333 157.085 144.43 155.629C145.54 154.173 147.072 153.107 148.634 152.161C150.361 151.125 152.793 149.683 155.135 149.188C155.15 149.188 155.15 149.188 155.15 149.188C156.697 150.224 157.898 151.725 158.123 153.977C158.483 157.821 154.339 161.529 148.063 164.938Z" fill="#FFE4E0"/>
<path d="M96.4245 133.317C87.5566 133.317 75.6684 132.826 60.5334 131.838C43.1222 130.703 14.0967 131.638 13.8048 131.647C13.5752 131.653 13.3902 131.477 13.3826 131.252C13.3749 131.026 13.5522 130.837 13.7781 130.829C14.0695 130.82 43.1342 129.883 60.5869 131.022C84.6836 132.594 100.522 132.908 109.009 131.982C109.233 131.956 109.436 132.119 109.46 132.344C109.485 132.569 109.323 132.771 109.098 132.795C105.913 133.142 101.704 133.317 96.4245 133.317Z" fill="#550E68"/>
<path d="M75.2738 161.688C62.8324 161.688 52.1188 161.176 51.9147 161.165C51.6888 161.154 51.5148 160.962 51.5263 160.737C51.5372 160.511 51.7309 160.338 51.9551 160.348C52.3457 160.367 91.1852 162.223 106.859 158.824C122.564 155.417 148.342 146.846 148.601 146.76C148.816 146.689 149.047 146.805 149.119 147.018C149.19 147.233 149.074 147.465 148.86 147.536C148.601 147.622 122.781 156.208 107.033 159.624C99.4922 161.258 86.6596 161.688 75.2738 161.688Z" fill="#550E68"/>
<path d="M76.5963 187.361C76.4038 187.361 76.2324 187.225 76.1948 187.028C76.1528 186.806 76.2985 186.592 76.5205 186.55C79.4639 185.99 82.5039 185.556 85.444 185.136C89.3777 184.574 93.4455 183.993 97.3339 183.103C97.5571 183.051 97.7737 183.191 97.8238 183.41C97.8746 183.63 97.7366 183.85 97.5167 183.9C93.595 184.797 89.5103 185.381 85.5597 185.945C82.6288 186.364 79.5981 186.797 76.6733 187.353C76.6476 187.359 76.622 187.361 76.5963 187.361Z" fill="#550E68"/>
</svg>
