<svg width="170" height="190" viewBox="0 0 170 190" fill="none" xmlns="http://www.w3.org/2000/svg">
<path d="M82.0157 96.7023L57.2501 186.773C57.2501 186.773 26.9202 199.765 0 173.463C0 173.463 5.9187 124.086 11.4828 99.8662C13.0648 92.9747 14.6193 88.1197 15.9923 87.0198C16.1285 86.9108 16.265 86.838 16.4016 86.8018C22.593 85.256 25.0659 110.94 25.0659 110.94L37.3307 83.0291L82.0157 96.7023Z" fill="#FFBEB2"/>
<path d="M49.2061 164.485C49.0588 164.485 48.928 164.379 48.9025 164.229C47.0022 153.16 42.185 143.876 33.2829 134.125C26.8619 127.092 23.6984 118.348 24.6041 110.134C24.6226 109.965 24.7794 109.838 24.9443 109.862C25.1138 109.88 25.2359 110.033 25.217 110.202C24.331 118.239 27.4366 126.807 33.7382 133.709C42.7247 143.552 47.5887 152.932 49.5105 164.124C49.5393 164.292 49.4266 164.451 49.2587 164.48C49.2411 164.483 49.2234 164.485 49.2061 164.485Z" fill="#550E68"/>
<path d="M14.7648 95.702C14.4103 96.9385 13.9919 98.2297 13.0557 99.1116C12.674 99.4661 12.092 99.7569 11.4828 99.8659C13.0648 92.9744 14.6192 88.1194 15.9923 87.0195C16.265 89.9289 15.5739 92.8749 14.7648 95.702Z" fill="#FFE4E0"/>
<path d="M87.5896 93.4517L112.355 183.523C112.355 183.523 142.685 196.515 169.605 170.213C169.605 170.213 163.687 120.836 158.122 96.6157C156.54 89.7242 154.986 84.8692 153.613 83.7693C153.477 83.6603 153.34 83.5875 153.204 83.5509C147.012 82.0055 144.539 107.689 144.539 107.689L132.275 79.7781L87.5896 93.4517Z" fill="#FFBEB2"/>
<path d="M120.398 161.235C120.381 161.235 120.363 161.233 120.346 161.23C120.178 161.202 120.065 161.042 120.094 160.874C122.016 149.682 126.88 140.302 135.866 130.459C142.168 123.557 145.274 114.989 144.388 106.952C144.369 106.783 144.491 106.631 144.661 106.612C144.828 106.589 144.982 106.715 145.001 106.885C145.907 115.098 142.743 123.843 136.322 130.875C127.42 140.626 122.602 149.91 120.702 160.979C120.677 161.129 120.546 161.235 120.398 161.235Z" fill="#550E68"/>
<path d="M154.84 92.4524C155.195 93.6889 155.613 94.9801 156.549 95.8616C156.931 96.2161 157.513 96.507 158.122 96.6164C156.54 89.7249 154.986 84.8699 153.613 83.77C153.34 86.6793 154.031 89.6249 154.84 92.4524Z" fill="#FFE4E0"/>
<path d="M83.715 36.3818C83.5007 34.75 83.098 33.1491 82.5727 31.5984C79.1911 21.6153 74.4167 10.0884 64.7602 4.63947C58.7181 1.22991 49.1023 0.380093 43.9047 5.86731C40.4803 9.48253 39.7227 15.0121 41.8279 19.4883C42.4568 20.8255 43.275 22.0587 44.2025 23.2063C45.8145 25.2182 47.7832 26.9877 49.7765 28.6536C51.8295 30.3586 53.9401 32.0114 56.1991 33.4366C61.3272 36.6656 67.2122 38.6734 73.2436 39.3187C76.2558 39.6511 79.31 39.6309 82.3156 39.2686C82.4781 39.25 82.6307 39.2233 82.7652 39.199C84.2583 38.891 83.9396 38.1037 83.715 36.3818ZM47.8149 13.3491C47.8149 13.3491 55.1148 8.77092 64.1671 16.3823C73.2193 23.9936 79.4066 35.2004 79.4066 35.2004C79.4066 35.2004 49.8296 24.7949 47.8149 13.3491Z" fill="#C23001"/>
<path opacity="0.38" d="M82.7659 39.1991C82.6314 39.2238 82.4788 39.2501 82.3163 39.2686C79.3107 39.631 76.2565 39.6511 73.2443 39.3188C67.2133 38.673 61.3279 36.6657 56.1998 33.4367C53.9412 32.0114 51.8302 30.3587 49.7772 28.6537C47.7839 26.9874 45.8153 25.2182 44.2032 23.2064C43.1124 19.4328 42.3896 13.7596 47.8152 13.3491C49.8299 24.7953 79.4074 35.2005 79.4074 35.2005L82.7659 39.1991Z" fill="#C23001"/>
<path d="M88.9881 37.6398C89.1226 37.6628 89.2757 37.6879 89.4381 37.7052C92.4475 38.038 95.5016 38.0281 98.5101 37.6657C104.535 36.9607 110.4 34.8953 115.496 31.6158C117.74 30.1683 119.835 28.495 121.871 26.7698C123.848 25.0842 125.799 23.2953 127.391 21.2678C128.307 20.1111 129.113 18.8701 129.729 17.5267C133.203 9.94581 130.612 1.40895 121.557 0.142041C115.675 -0.681041 109.522 2.17198 105.191 5.98506C101.508 9.2272 98.6327 13.2509 96.0055 17.3638C93.3915 21.4558 90.6388 25.359 89.1054 30.0375C88.5953 31.5932 88.2082 33.1978 88.0104 34.832C87.8031 36.5563 87.4921 37.3465 88.9881 37.6398ZM92.3072 33.6079C92.3072 33.6079 98.3843 22.341 107.361 14.6408C116.338 6.94018 123.682 11.4464 123.682 11.4464C121.781 22.9119 92.3072 33.6079 92.3072 33.6079Z" fill="#C23001"/>
<path opacity="0.38" d="M88.9889 37.6397C89.1234 37.6628 89.2764 37.6879 89.4389 37.7051C92.4482 38.0379 95.5024 38.028 98.5109 37.6656C104.536 36.9606 110.401 34.8953 115.497 31.6157C117.741 30.1682 119.836 28.4949 121.871 26.7698C123.848 25.0841 125.8 23.2952 127.392 21.2678C128.445 17.4839 129.112 11.8038 123.683 11.4467C121.781 22.9119 92.3071 33.6078 92.3071 33.6078L88.9889 37.6397Z" fill="#C23001"/>
<path d="M81.6825 36.3707C81.5645 35.5336 81.5098 34.6711 81.7121 33.85C81.9141 33.029 82.4048 32.2475 83.1543 31.8563C83.9037 31.4651 84.9218 31.5511 85.4894 32.1776C86.0781 31.3039 87.2602 30.939 88.2873 31.1718C89.3149 31.4047 90.1741 32.1574 90.7048 33.0677C91.235 33.9776 91.4666 35.0339 91.5591 36.0832C91.7043 37.7298 91.4522 39.5557 90.2494 40.6889C89.1437 41.7308 87.4713 41.9451 85.9695 41.7135C82.8791 41.236 82.0811 39.1945 81.6825 36.3707Z" fill="#C23001"/>
<path d="M146.933 36.5097L145.57 49.9608L145.552 50.0681L144.485 52.5086L145.124 54.3366L145.106 54.4735L143.433 70.9886L142.429 72.7854L142.988 75.3941L142.315 82.0412L141.715 87.925L141.306 91.9092L140.304 93.6783L140.86 96.3146L139.178 112.83L138.148 114.88L138.733 117.235L136.405 140.153L114.731 140.711L112.957 139.934L110.567 140.818H110.558L98.1114 141.141L94.9384 141.22L92.6563 141.278L90.7744 141.327L75.1548 141.738L73.2223 140.966L70.9908 141.846L54.5897 142.267L52.8448 140.667L50.4072 142.375L46.989 142.463L46.3432 142.482H38.6064L38.1157 140.73L37.2519 137.617L33.8152 125.233L32.9423 122.12L29.7874 110.745L28.9145 107.631L25.6691 95.9328L25.5325 95.4627L24.7962 92.81L23.96 89.785L21.5504 81.1211L20.6866 77.9982L17.5321 66.6816L16.6683 63.5587L13.2225 51.1648L25.9143 37.1752H26.1779L43.7432 37.0778L46.0142 37.8893L47.8253 37.058L62.6268 36.97L66.7084 36.9502L82.0006 36.8721L83.6554 36.8622L86.0831 36.8425L89.1287 36.8231H89.1377L101.093 36.7643H101.375L105.193 36.7446L105.448 36.7347L120.658 36.6565H120.749L122.582 37.4656L124.75 36.6273H124.832L140.124 36.5488H140.169L141.924 37.3632L144.197 36.5294H144.242L146.933 36.5097Z" fill="#E08E80"/>
<path d="M47.8249 37.0577L17.5317 66.6813L16.6679 63.5584L43.7428 37.0775L47.8249 37.0577Z" fill="#ECD2CC"/>
<path d="M66.7081 36.95L21.5501 81.1208L20.6863 77.9979L62.6265 36.9697L66.7081 36.95Z" fill="#ECD2CC"/>
<path d="M66.7081 36.95L21.5501 81.1208L20.6863 77.9979L62.6265 36.9697L66.7081 36.95Z" fill="#ECD2CC"/>
<path d="M86.0824 36.8422L83.8637 39.0157L37.6781 84.1848L35.8234 85.9959L26.7502 94.8655L25.6684 95.9325L25.5318 95.4624L24.7955 92.8097L31.7323 86.0255L35.169 82.6674L81.9999 36.8718L83.6547 36.8619L86.0824 36.8422Z" fill="#ECD2CC"/>
<path d="M86.0824 36.8422L83.8637 39.0157L37.6781 84.1848L35.8234 85.9959L26.7502 94.8655L25.6684 95.9325L25.5318 95.4624L24.7955 92.8097L31.7323 86.0255L35.169 82.6674L81.9999 36.8718L83.6547 36.8619L86.0824 36.8422Z" fill="#ECD2CC"/>
<path d="M105.448 36.7344L38.9519 101.787L29.7873 110.744L28.9145 107.631L38.288 98.4581L101.375 36.764L105.193 36.7442L105.448 36.7344Z" fill="#ECD2CC"/>
<path d="M124.75 36.6273L38.6423 120.524L33.8149 125.233L32.942 122.12L120.658 36.6565H120.749L124.75 36.6273Z" fill="#ECD2CC"/>
<path d="M144.242 36.5293L38.1155 140.73L37.2517 137.617L46.3525 128.669L140.169 36.5486L144.196 36.5293H144.242Z" fill="#ECD2CC"/>
<path d="M145.569 49.9608L145.551 50.0681L145.124 54.3365L56.8349 140.094L54.5894 142.267L50.4069 142.375L145.569 49.9608Z" fill="#ECD2CC"/>
<path d="M143.433 70.9888L142.988 75.3942L75.1547 141.738L70.9908 141.846L143.433 70.9888Z" fill="#ECD2CC"/>
<path d="M143.433 70.9888L142.988 75.3942L75.1547 141.738L70.9908 141.846L143.433 70.9888Z" fill="#ECD2CC"/>
<path d="M141.306 91.909L140.86 96.3144L97.9386 138.283L94.9384 141.219L92.6563 141.278L90.7744 141.327L92.5563 139.584L97.6931 134.562L141.306 91.909Z" fill="#ECD2CC"/>
<path d="M141.306 91.909L140.86 96.3144L97.9386 138.283L94.9384 141.219L92.6563 141.278L90.7744 141.327L92.5563 139.584L97.6931 134.562L141.306 91.909Z" fill="#ECD2CC"/>
<path d="M139.178 112.83L138.732 117.235L114.73 140.711L110.566 140.818L139.178 112.83Z" fill="#ECD2CC"/>
<path d="M98.1115 141.142L94.9384 141.22L92.6564 141.279C92.6198 140.731 92.5926 140.163 92.5564 139.585C92.3108 135.61 91.9748 130.902 91.5746 125.684V125.674C91.4836 124.47 91.3927 123.246 91.2928 121.993C90.9382 117.5 90.547 112.703 90.1291 107.759C90.0201 106.545 89.9202 105.331 89.8198 104.107V104.098C89.4471 99.8193 89.065 95.4533 88.6833 91.0874V91.0775C88.6195 90.3923 88.5562 89.707 88.4924 89.0217C88.4468 88.4931 88.4015 87.9547 88.3558 87.4261C88.2287 85.9967 88.1012 84.5772 87.9741 83.1577C87.6743 79.839 87.374 76.5401 87.0832 73.3288C86.9651 72.1051 86.8557 70.9011 86.7467 69.6967C86.3103 64.9684 85.8919 60.4458 85.5012 56.2457C85.3831 55.0026 85.2647 53.7982 85.1557 52.6235C84.6555 47.3172 84.2191 42.6774 83.8645 39.0161C83.7917 38.2522 83.7189 37.5377 83.6555 36.8623L86.0828 36.8426L89.1287 36.8232H89.1378C89.4196 39.7503 89.7741 43.4507 90.1744 47.7191C90.2834 48.884 90.4018 50.0884 90.5199 51.3413C90.9111 55.4625 91.338 60.0053 91.7745 64.8019C91.8925 65.9964 92.0019 67.2004 92.1109 68.4241C92.5383 72.9566 92.9657 77.6853 93.3931 82.4819C93.4202 82.6678 93.4293 82.8537 93.4474 83.0396C93.5383 84.0676 93.6292 85.0955 93.7291 86.1234C93.811 87.0534 93.8928 87.9835 93.9747 88.9135C94.284 92.3399 94.5839 95.7857 94.8747 99.1928C94.9837 100.417 95.0836 101.63 95.184 102.844C95.6114 107.719 96.0022 112.487 96.3748 117.02C96.4748 118.263 96.5747 119.497 96.6656 120.701C97.0659 125.733 97.411 130.422 97.6932 134.563C97.7841 135.855 97.8659 137.098 97.9387 138.283C98.0021 139.282 98.0568 140.231 98.1115 141.142Z" fill="#C23001"/>
<path d="M142.315 82.0413L141.715 87.9251L129.923 88.1698L125.777 88.2578L109.867 88.5811L105.712 88.6688L93.9748 88.9135L90.8289 88.9723L88.4925 89.0217L86.6925 89.0608L70.6003 89.3935H70.5908L66.4544 89.4717H66.4454L51.2169 89.7851L47.0711 89.8731H47.062L36.661 90.0887L36.6339 90.0981L26.7511 94.8659L25.5327 95.4628L24.7964 92.8101L23.9602 89.7851L31.7332 86.0259L35.4426 84.2341H35.4792L37.6791 84.1852L53.2078 83.8722L57.3536 83.7841L72.6092 83.4707L76.7641 83.3827L87.9743 83.1573L92.8021 83.0594L93.4475 83.04L96.9385 82.9714L111.894 82.6678L116.049 82.5798L131.914 82.2569L136.06 82.1688L142.315 82.0413Z" fill="#C23001"/>
<path opacity="0.35" d="M46.989 142.463L46.3432 142.482H38.6064L38.1157 140.73L37.2519 137.617L33.8152 125.233L32.9423 122.12L29.7874 110.745L28.9145 107.631L25.6691 95.9329L25.5325 95.4627L24.7962 92.81L23.96 89.7851L21.5504 81.1211L20.6866 77.9983L17.5321 66.6816L16.6683 63.5588L13.2225 51.1648L25.9143 37.1753H26.1779L29.0059 51.4877L29.6693 54.8166L32.0514 66.8774L32.7058 70.2055L35.1697 82.6677L35.479 84.2341L35.8241 85.9963L36.6337 90.0981L38.288 98.4585L38.9519 101.787L41.3521 113.926L42.0065 117.245L44.607 130.383V130.392L45.2614 133.711L46.989 142.463Z" fill="#E08E80"/>
</svg>
