<svg width="164" height="205" viewBox="0 0 164 205" fill="none" xmlns="http://www.w3.org/2000/svg">
<path d="M155.242 85.5235L148.959 84.2687C148.959 84.2687 150.2 85.5056 151.919 87.3543C152.017 87.4749 152.129 87.5865 152.25 87.716C155.835 91.5966 161.185 97.8215 162.083 101.215C162.127 101.381 162.163 101.546 162.181 101.702C162.221 102.01 162.221 102.278 162.163 102.515C161.221 106.601 155.559 112.893 148.646 112.263C148.646 112.263 157.921 120.18 160.149 124.7C160.234 124.847 160.297 124.994 160.355 125.133C160.614 125.762 160.712 126.307 160.591 126.731C159.649 130.188 157.452 134.595 148.959 133.966C140.461 133.34 122.849 113.835 122.849 113.835L94.4076 170.016L84.7045 144.431C83.5256 136.594 81.2209 128.058 77.8941 120.913C72.272 108.838 65.605 99.3711 65.605 99.3711C65.605 99.3711 73.0267 70.497 76.6795 56.6806C87.2137 47.9862 103.053 36.1526 111.207 36.1526C118.155 36.1526 131.405 38.4345 142.251 40.7789C142.412 40.8146 142.568 40.8548 142.734 40.8905C151.79 42.8687 159.051 44.8738 159.336 45.5838C159.39 45.7133 159.43 45.9142 159.466 46.1822C159.484 46.334 159.493 46.4992 159.511 46.6734C159.68 50.1208 158.318 59.5073 151.473 60.0521C151.473 60.0521 151.714 60.2575 152.129 60.6058C152.232 60.6996 152.352 60.8023 152.482 60.9139C155.17 63.2316 162.36 69.7066 163.329 73.4308V73.4397C163.382 73.605 163.409 73.7523 163.422 73.9131C163.458 74.1319 163.458 74.3373 163.431 74.5204C162.793 78.6153 162.163 84.8983 155.242 85.5235Z" fill="#FFBEB3"/>
<path d="M159.512 46.6743C158.33 47.0347 157.101 47.1731 155.881 47.1731C153.368 47.1731 150.855 46.5819 148.674 46.0737C147.307 45.7504 145.755 45.39 144.47 44.5492C143.352 43.8101 142.197 42.4517 142.253 40.7794V40.6869C142.262 40.5574 142.363 40.4655 142.493 40.4655C142.502 40.4655 142.502 40.4655 142.511 40.4655C142.641 40.4748 142.742 40.5856 142.742 40.7151C142.742 40.7798 142.733 40.8258 142.733 40.8906C142.733 42.3133 143.749 43.4958 144.738 44.1428C145.948 44.9377 147.389 45.2699 148.784 45.6026C151.991 46.351 155.936 47.2749 159.465 46.1845C159.484 46.3323 159.494 46.4988 159.512 46.6743Z" fill="#040308"/>
<path d="M152.481 60.9119C152.463 60.9489 152.444 60.9766 152.408 61.0043C151.521 61.6603 151.326 62.9075 151.53 63.8502C151.779 64.9773 152.528 65.966 153.147 66.6867C154.533 68.3037 156.186 69.7081 157.785 71.0567C158.783 71.9069 159.919 72.8679 161.24 73.3019C161.869 73.5051 162.626 73.5792 163.328 73.4404C163.384 73.6065 163.411 73.7543 163.421 73.9115C163.135 73.9668 162.848 73.9945 162.562 73.9945C162.044 73.9945 161.536 73.9115 161.083 73.7637C159.679 73.3019 158.506 72.3039 157.471 71.4264C155.854 70.0591 154.191 68.6546 152.777 67.01C152.121 66.2339 151.326 65.1898 151.058 63.9516C150.818 62.8615 151.049 61.4017 152.112 60.6163C152.121 60.6069 152.121 60.6069 152.13 60.6069L152.481 60.9119Z" fill="#040308"/>
<path d="M162.183 101.704C161.896 101.833 161.61 101.953 161.314 102.064C160.843 102.24 160.335 102.415 159.79 102.443H159.614C158.385 102.443 157.138 101.741 155.817 100.299C154.422 98.7843 153.156 96.9642 151.853 94.5988C151.215 93.444 150.532 92.0949 150.476 90.6258C150.439 89.4987 150.874 88.1126 151.918 87.3552C152.02 87.4753 152.13 87.5861 152.25 87.7156C151.317 88.3533 150.929 89.6005 150.966 90.6075C151.021 91.9659 151.668 93.2591 152.278 94.3585C153.562 96.6962 154.8 98.4793 156.177 99.9761C157.452 101.371 158.635 102.009 159.762 101.953C160.242 101.935 160.713 101.778 161.148 101.611C161.461 101.491 161.776 101.362 162.081 101.214C162.127 101.381 162.164 101.547 162.183 101.704Z" fill="#040308"/>
<path d="M160.353 125.135C159.808 125.403 159.198 125.514 158.588 125.514C158.025 125.514 157.461 125.412 156.971 125.246C155.493 124.738 154.283 123.666 153.211 122.714L151.446 121.153C150.402 120.238 149.229 119.194 148.508 117.873C147.87 116.69 147.51 114.916 148.416 113.484C148.489 113.373 148.637 113.336 148.748 113.41C148.868 113.484 148.896 113.632 148.822 113.743C148.175 114.778 148.221 116.302 148.942 117.642C149.617 118.889 150.707 119.859 151.769 120.792L153.534 122.354C154.569 123.268 155.742 124.312 157.128 124.784C158.043 125.098 159.207 125.154 160.15 124.701C160.233 124.849 160.298 124.996 160.353 125.135Z" fill="#040308"/>
<path d="M148.405 145.634H67.3111C66.3113 145.634 65.5008 144.823 65.5008 143.823V1.94509C65.5008 0.945259 66.3113 0.134766 67.3111 0.134766H148.404C149.404 0.134766 150.215 0.945259 150.215 1.94509V143.823C150.215 144.823 149.404 145.634 148.405 145.634Z" fill="#29150C"/>
<path d="M145.264 5.91101H70.4513V133.532H145.264V5.91101Z" fill="#FDF3EA"/>
<path d="M115.559 142.435H100.157C98.584 142.435 97.3046 141.155 97.3046 139.583C97.3046 138.01 98.584 136.73 100.157 136.73H115.559C117.132 136.73 118.411 138.01 118.411 139.583C118.411 141.155 117.132 142.435 115.559 142.435ZM100.157 136.933C98.6956 136.933 97.5073 138.121 97.5073 139.583C97.5073 141.044 98.6956 142.232 100.157 142.232H115.559C117.02 142.232 118.209 141.044 118.209 139.583C118.209 138.121 117.02 136.933 115.559 136.933H100.157Z" fill="#FDF3EA"/>
<path d="M94.4079 170.017L93.5818 171.647L93.5595 171.696L77.0728 202.843C76.1841 204.455 73.7594 205.196 72.0401 204.544L2.39128 178.175C0.350531 177.403 -0.582764 175.049 0.38179 173.093C5.56627 162.582 20.5972 132.332 25.0315 119.815C30.2651 105.043 60.5682 32.206 67.4942 32.3757C73.8353 32.5276 80.9533 40.8022 77.8721 52.1893C77.5506 53.3726 77.4573 54.957 76.9928 56.7343C75.4536 62.5569 73.2789 71.475 71.2386 79.3575C68.4369 90.1802 65.6053 99.372 65.6053 99.372C65.6053 99.372 72.2723 108.839 77.8944 120.914C81.2213 128.059 83.7572 137.246 84.9361 145.083L90.9106 156.952L94.4079 170.017Z" fill="#FFBEB3"/>
<path d="M85.3426 148.039C85.23 148.039 85.1309 147.957 85.1139 147.843C84.3182 142.531 81.7349 130.055 77.6623 120.852C73.5205 111.496 65.4951 99.6192 65.4138 99.4999C65.3758 99.4428 65.3647 99.3713 65.3839 99.3052C65.5134 98.8698 78.2714 55.6645 78.2714 46.1369C78.2714 36.9102 71.6169 33.6477 68.7558 32.6733C66.1908 31.8061 63.9259 36.0573 63.9036 36.1001C63.8433 36.2136 63.7048 36.2587 63.5914 36.1975C63.478 36.1372 63.4347 35.9979 63.4941 35.8854C63.5945 35.6947 65.9849 31.247 68.9041 32.2357C71.8593 33.2422 78.7327 36.611 78.7327 46.1369C78.7327 55.5002 66.5614 96.9439 65.8572 99.3311C66.6128 100.455 74.1176 111.705 78.0834 120.666C82.1769 129.912 84.771 142.442 85.5707 147.775C85.5886 147.901 85.5024 148.018 85.3761 148.038C85.3653 148.038 85.3533 148.039 85.3426 148.039Z" fill="#040308"/>
<path d="M55.1283 50.5861C55.9018 51.4533 56.9128 52.3553 58.0738 52.3553C58.0787 52.3553 58.0841 52.3553 58.089 52.3553C59.3706 52.3473 60.3338 51.2863 61.1068 50.2498C62.8157 47.9599 64.3903 45.5199 65.7853 42.9974C66.4909 41.7207 67.0348 40.6342 67.4956 39.5794C68.0033 38.4162 68.4999 37.0403 68.3316 35.6605C68.1319 34.0288 67.3308 33.0763 66.0774 32.9789C65.9246 32.953 65.8264 33.0683 65.8166 33.2018C65.8054 33.3353 65.9059 33.4527 66.0394 33.4626C67.3188 33.563 67.7305 34.7451 67.8497 35.7185C68.0033 36.9801 67.5559 38.2264 67.0499 39.3847C66.5954 40.4252 66.0586 41.4992 65.3602 42.7625C63.9754 45.2654 62.4138 47.6871 60.7178 49.9591C60.0163 50.8996 59.1553 51.8628 58.0863 51.8699C58.0823 51.8699 58.0783 51.8699 58.0742 51.8699C57.0539 51.8699 56.1496 50.9478 55.3878 50.0797L55.1283 50.5861Z" fill="#040308"/>
<path d="M116.333 51.5485C115.745 52.531 114.259 52.6149 113.134 52.8413C111.363 53.1903 109.553 53.3454 107.744 53.3001C106.432 53.2677 105.1 53.1257 103.898 52.6085C102.696 52.0914 101.209 51.2125 101.216 49.9004C101.222 49.2799 101.332 48.6789 101.532 48.1037C102.172 46.2034 103.736 44.594 105.436 43.45C107.66 41.9635 110.213 41.0004 112.371 39.4169C111.699 40.7743 112.21 42.4418 113.056 43.6956C113.903 44.956 115.06 45.9771 115.875 47.257C116.056 47.5478 116.224 47.858 116.353 48.1812C116.812 49.2863 116.928 50.5401 116.333 51.5485Z" fill="#FFBEB2"/>
<path opacity="0.15" d="M116.333 51.549C115.745 52.5316 114.259 52.6155 113.134 52.8418C111.363 53.1909 109.553 53.346 107.744 53.3007C106.432 53.2682 105.1 53.1262 103.898 52.6091C102.696 52.092 101.209 51.2131 101.216 49.901C101.222 49.2805 101.332 48.6794 101.532 48.1042C102.528 47.781 103.633 47.6454 104.408 47.6454C107.323 47.6583 110.109 49.2936 113.011 49.0028C114.149 48.8801 115.241 48.4728 116.353 48.182C116.812 49.2868 116.928 50.5406 116.333 51.549Z" fill="#C12A0F"/>
<path d="M122.145 58.5356C121.434 59.2788 120.406 59.6279 119.411 59.9189C113.503 61.6446 107.085 62.2908 101.236 60.3841C98.7735 59.5762 95.6905 57.2623 96.4855 54.2568C96.7311 53.3389 97.2158 52.4471 97.8556 51.6585C99.1419 50.0749 101.068 48.905 102.955 48.7501C105.618 48.524 108.178 49.8746 110.847 49.9458C112.237 49.9781 113.613 49.668 115.003 49.6744C117.13 49.6809 119.243 50.4564 120.859 51.8268C120.885 51.846 120.911 51.8719 120.936 51.8978C121.88 52.7122 122.656 53.7528 122.966 54.9613C123.283 56.1958 123.031 57.6177 122.145 58.5356Z" fill="#FFBEB2"/>
<path opacity="0.15" d="M122.145 58.5344C121.434 59.2777 120.406 59.6267 119.411 59.9177C113.503 61.6435 107.085 62.2897 101.236 60.3829C98.7735 59.575 95.6905 57.2611 96.4855 54.2557C96.7311 53.3378 97.2158 52.4459 97.8556 51.6573C97.8749 51.6573 97.9008 51.6508 97.9203 51.6508C100.131 51.431 102.309 52.1938 104.5 52.575C106.329 52.8982 108.197 52.9499 110.039 52.7367C113.691 52.3167 117.485 50.8817 120.936 51.8964C121.88 52.7109 122.656 53.7515 122.966 54.9599C123.283 56.1947 123.031 57.6165 122.145 58.5344Z" fill="#C12A0F"/>
<path d="M127.535 60.5703C116.58 63.0652 105.295 64.7003 94.1846 66.3939C93.5123 66.4973 92.8403 66.6007 92.1614 66.7042C91.3084 66.8334 90.4551 66.9627 89.6019 67.092C89.3951 67.1244 89.1753 67.1566 88.9684 67.1115C88.4386 67.0017 88.1088 66.4134 88.1088 65.8706C88.1088 65.4957 88.3674 65.2501 88.5547 64.9593C88.6452 64.83 88.7164 64.6878 88.7421 64.5197C88.9555 63.1301 89.2851 61.7406 89.7827 60.4283C89.7893 60.4349 89.7893 60.4349 89.7893 60.4283C90.203 59.3297 90.7457 58.2891 91.4375 57.3324C92.7237 55.5549 94.5917 54.133 96.7051 53.5966C97.0735 53.4996 97.4484 53.4285 97.8296 53.3898C100.046 53.17 102.225 53.9327 104.416 54.314C106.238 54.6306 108.113 54.6889 109.955 54.4757C113.872 54.0232 117.963 52.4009 121.615 53.9005C122.048 54.0815 122.455 54.2947 122.836 54.5403C123.715 55.1026 124.484 55.8329 125.157 56.6669C126.113 57.8364 126.883 59.2129 127.535 60.5703Z" fill="#FFBEB2"/>
<path opacity="0.15" d="M127.536 60.5713C116.58 63.0662 105.295 64.7013 94.1848 66.3948C93.5126 66.4983 92.8405 66.6017 92.1617 66.7051C90.9208 66.2075 89.7122 65.6321 88.5552 64.96C88.6457 64.8307 88.7169 64.6885 88.7426 64.5205C88.956 63.1308 89.2855 61.7414 89.7832 60.4291C89.7897 60.4356 89.7897 60.4356 89.7897 60.4291C90.1322 60.1834 90.4878 59.9573 90.8562 59.757C92.821 58.6971 95.0832 58.3157 97.3066 58.1929C97.4293 58.1866 97.5457 58.18 97.6686 58.18H97.6752C100.086 58.0637 102.497 58.2317 104.863 58.6842C105.386 58.7813 105.916 58.891 106.433 58.7942C106.957 58.6908 107.415 58.3805 107.868 58.109C109.678 57.0101 111.753 56.3251 113.866 56.2927C115.98 56.2603 118.125 56.9067 119.773 58.2317C120.762 57.6241 121.861 57.1782 122.992 56.926C123.703 56.7645 124.433 56.674 125.157 56.6674C126.114 57.8373 126.883 59.2138 127.536 60.5713Z" fill="#FFA368"/>
<path d="M140.127 81.2692C140.116 81.4936 140.099 81.7126 140.083 81.926C139.891 84.9529 139.552 87.0602 139.552 87.0602L128.069 87.4542L127.33 87.4816L76.1025 87.4542C76.1025 87.4542 75.7201 86.8119 75.2493 83.0775C75.2493 82.2841 75.7204 78.5498 75.2495 78.5498C75.348 76.4916 75.0522 77.5253 75.2493 75.2866C75.6982 70.2345 76.4315 65.4233 77.6468 64.0003C82.5345 58.275 132.568 57.1528 137.319 64.2795C138.682 66.3321 139.448 69.0907 139.848 71.9752C140.285 75.1772 140.274 78.5381 140.127 81.2692Z" fill="#FFA368"/>
<path d="M140.127 81.2689C140.116 81.4932 140.099 81.7122 140.083 81.9256C138.298 80.4697 135.452 80.6119 133.449 81.7231C131.074 83.0312 129.41 85.4452 128.069 87.454C128.014 87.5361 127.959 87.6127 127.904 87.6948C127.855 87.777 127.779 87.8207 127.669 87.8154C127.576 87.8154 127.489 87.7607 127.439 87.6785C127.401 87.6129 127.363 87.5471 127.33 87.4814C126.29 85.6588 125.299 84.0496 123.887 82.8015C122.239 81.3401 120.22 80.6887 118.479 81.0664C116.131 81.5753 114.292 83.7757 113.017 87.6071C112.978 87.7221 112.874 87.7987 112.743 87.7933C112.622 87.7879 112.519 87.7002 112.491 87.5799C112.026 85.5492 111.221 83.8906 110.088 82.6428C108.791 81.2088 107.001 80.355 105.299 80.355C104.434 80.355 103.559 80.5684 102.732 80.9626C101.906 81.3568 101.128 81.9314 100.449 82.6649C99.3163 83.8964 98.4681 85.511 97.866 87.6075C97.8332 87.7279 97.7183 87.81 97.5924 87.8046C97.4665 87.7993 97.3624 87.7062 97.3352 87.5857C96.7441 84.7065 95.8847 81.8987 93.5913 80.8369C91.4731 79.8516 88.9935 80.8753 87.5923 82.249C85.9009 83.8964 85.0471 86.272 84.4944 88.1604C84.456 88.2754 84.3521 88.3576 84.2316 88.3576C84.2207 88.3576 84.2151 88.3576 84.2042 88.352C84.0783 88.341 83.9743 88.2426 83.9579 88.1167C83.7774 86.5787 83.0494 82.8675 80.2249 81.6416C78.5391 80.9136 76.3716 81.2913 74.7789 82.5776C74.7843 82.3477 74.7952 82.1124 74.8117 81.8715C76.5194 80.6837 78.7088 80.3826 80.4386 81.138C82.3652 81.9755 83.7445 84.039 84.3193 86.8905C84.8941 85.1773 85.7533 83.2725 87.2092 81.855C89.0868 80.0268 91.807 79.4029 93.8212 80.3388C96.0543 81.3733 97.0287 83.82 97.6526 86.4746C98.2493 84.7614 99.0375 83.3876 100.05 82.2983C101.506 80.7165 103.416 79.8078 105.299 79.8078C106.241 79.8078 107.182 80.0322 108.069 80.4536C108.955 80.8751 109.782 81.488 110.494 82.2762C111.523 83.4091 112.294 84.8543 112.798 86.5838C114.128 83.0808 115.995 81.0447 118.365 80.5302C120.275 80.1197 122.475 80.8148 124.254 82.3912C125.677 83.6502 126.673 85.232 127.697 87.0218C129.06 84.9911 130.751 82.5883 133.181 81.2474C135.25 80.0976 138.151 79.917 140.127 81.2689Z" fill="#FFE4E0"/>
<path d="M115.252 82.3084C115.252 82.4515 115.247 82.5899 115.234 82.7283C115.123 83.969 114.542 85.0715 113.661 85.8509C112.835 86.5936 111.751 87.0454 110.552 87.0594H110.501C107.877 87.0594 105.751 84.933 105.751 82.3086C105.751 81.3446 106.037 80.4452 106.535 79.6934C107.384 78.4066 108.846 77.5579 110.502 77.5579C113.126 77.5577 115.252 79.6841 115.252 82.3084Z" fill="#C23001"/>
<path opacity="0.35" d="M115.231 82.7289C115.121 83.9695 114.539 85.072 113.658 85.8515C112.727 86.4833 111.656 86.9215 110.55 87.0599H110.499C107.875 87.0599 105.748 84.9336 105.748 82.3092C105.748 81.3452 106.034 80.4458 106.532 79.694C107.04 80.229 107.621 80.6811 108.253 81.0639C108.968 81.4975 109.738 81.8297 110.536 82.0787C112.049 82.5489 113.64 82.7104 115.231 82.7289Z" fill="#C23001"/>
<path d="M113.439 83.2405C113.479 83.4386 113.565 83.6536 113.752 83.7297C113.892 83.7866 114.054 83.7488 114.187 83.6776C114.458 83.5332 114.644 83.2625 114.743 82.9728C114.843 82.6828 114.864 82.3725 114.872 82.0662C114.878 81.8506 114.876 81.6277 114.79 81.4302C114.478 80.7163 113.95 81.251 113.708 81.6716C113.439 82.1408 113.333 82.7076 113.439 83.2405Z" fill="#FFE4E0"/>
<path d="M111.324 78.6205C111.26 78.7643 111.3 78.9381 111.39 79.0668C111.481 79.1955 111.615 79.2862 111.752 79.3645C112.058 79.5404 112.392 79.6679 112.738 79.7412C112.883 79.7721 113.034 79.7932 113.179 79.7599C113.324 79.7267 113.461 79.6291 113.505 79.4873C113.548 79.3484 113.495 79.1977 113.423 79.0718C113.151 78.5992 111.676 77.8291 111.324 78.6205Z" fill="#923EFF"/>
<path d="M109.619 85.4628C108.616 84.1615 107.174 83.2054 105.584 82.7895C103.995 82.3734 102.269 82.4999 100.758 83.1429C101.151 84.3958 102.326 85.1509 103.58 85.5412C105.4 86.1076 107.852 86.1798 109.619 85.4628Z" fill="#E08E80"/>
<path d="M111.307 86.1588C112.924 86.4496 114.635 86.1891 116.092 85.4299C117.548 84.6707 118.742 83.4179 119.43 81.926C118.297 81.2621 116.92 81.4914 115.729 82.0446C114 82.8477 112.135 84.4412 111.307 86.1588Z" fill="#E08E80"/>
<path d="M90.5143 82.3084C90.5143 82.4515 90.5097 82.5899 90.4958 82.7283C90.3852 83.969 89.8038 85.0715 88.9229 85.8509C88.0973 86.5936 87.0134 87.0454 85.8143 87.0594H85.7635C83.1392 87.0594 81.0128 84.933 81.0128 82.3086C81.0128 81.3446 81.2988 80.4452 81.7968 79.6934C82.6455 78.4066 84.1076 77.5579 85.7635 77.5579C88.3881 77.5577 90.5143 79.6841 90.5143 82.3084Z" fill="#C23001"/>
<path opacity="0.35" d="M90.4972 82.7289C90.3866 83.9695 89.8052 85.072 88.9243 85.8515C87.9925 86.4833 86.9225 86.9215 85.8157 87.0599H85.7649C83.1406 87.0599 81.0142 84.9336 81.0142 82.3092C81.0142 81.3452 81.3002 80.4458 81.7982 79.694C82.3056 80.229 82.8868 80.6811 83.5187 81.0639C84.2337 81.4975 85.0038 81.8297 85.8017 82.0787C87.3145 82.5489 88.9058 82.7104 90.4972 82.7289Z" fill="#C23001"/>
<path d="M88.7034 83.2405C88.743 83.4386 88.8293 83.6536 89.0165 83.7297C89.1563 83.7866 89.3186 83.7488 89.4516 83.6776C89.7219 83.5332 89.9083 83.2625 90.0075 82.9728C90.107 82.6828 90.1283 82.3725 90.1364 82.0662C90.1422 81.8506 90.1402 81.6277 90.0541 81.4302C89.7428 80.7163 89.2146 81.251 88.9729 81.6716C88.7032 82.1408 88.597 82.7076 88.7034 83.2405Z" fill="#FFE4E0"/>
<path d="M86.5876 78.6205C86.5236 78.7643 86.5635 78.9381 86.654 79.0668C86.7447 79.1955 86.879 79.2862 87.0154 79.3645C87.3221 79.5404 87.6562 79.6679 88.0019 79.7412C88.1469 79.7721 88.2983 79.7932 88.4429 79.7599C88.5875 79.7267 88.7249 79.6291 88.7688 79.4873C88.8118 79.3484 88.7593 79.1977 88.6869 79.0718C88.4144 78.5992 86.94 77.8291 86.5876 78.6205Z" fill="#923EFF"/>
<path d="M84.8838 85.4628C83.8814 84.1615 82.4389 83.2054 80.8497 82.7895C79.2606 82.3734 77.5348 82.4999 76.0232 83.1429C76.4164 84.3958 77.5911 85.1509 78.8449 85.5412C80.6654 86.1076 83.1173 86.1798 84.8838 85.4628Z" fill="#E08E80"/>
<path d="M86.5727 86.1588C88.1895 86.4496 89.9001 86.1891 91.357 85.4299C92.8137 84.6707 94.0074 83.4179 94.6952 81.926C93.5623 81.2621 92.185 81.4914 90.994 82.0446C89.2649 82.8477 87.4001 84.4412 86.5727 86.1588Z" fill="#E08E80"/>
<path d="M136.217 82.1238C136.217 82.2668 136.213 82.4052 136.199 82.5436C136.088 83.7843 135.507 84.8868 134.626 85.6662C133.8 86.4089 132.716 86.8607 131.517 86.8747H131.466C128.842 86.8747 126.716 84.7483 126.716 82.124C126.716 81.1599 127.002 80.2605 127.5 79.5087C128.348 78.2219 129.811 77.3732 131.466 77.3732C134.091 77.3732 136.217 79.4994 136.217 82.1238Z" fill="#C23001"/>
<path opacity="0.35" d="M136.199 82.5439C136.088 83.7845 135.507 84.887 134.626 85.6665C133.694 86.2983 132.624 86.7365 131.517 86.8749H131.466C128.842 86.8749 126.716 84.7486 126.716 82.1242C126.716 81.1602 127.002 80.2608 127.5 79.509C128.007 80.044 128.588 80.4961 129.22 80.8789C129.935 81.3125 130.705 81.6447 131.503 81.8937C133.016 82.3639 134.607 82.5254 136.199 82.5439Z" fill="#C23001"/>
<path d="M134.406 83.0555C134.446 83.2536 134.532 83.4686 134.72 83.5447C134.859 83.6016 135.021 83.5638 135.155 83.4926C135.425 83.3482 135.611 83.0775 135.711 82.7878C135.81 82.4978 135.831 82.1875 135.839 81.8812C135.845 81.6656 135.843 81.4427 135.757 81.2452C135.446 80.5313 134.918 81.066 134.676 81.4866C134.406 81.9558 134.3 82.5226 134.406 83.0555Z" fill="#FFE4E0"/>
<path d="M132.291 78.4362C132.227 78.58 132.267 78.7539 132.358 78.8825C132.448 79.0112 132.582 79.1019 132.719 79.1803C133.026 79.3561 133.36 79.4836 133.705 79.557C133.85 79.5878 134.002 79.6089 134.146 79.5757C134.291 79.5425 134.428 79.4448 134.472 79.303C134.515 79.1642 134.463 79.0134 134.39 78.8875C134.118 78.415 132.644 77.6448 132.291 78.4362Z" fill="#923EFF"/>
<path d="M130.586 85.2785C129.584 83.9772 128.141 83.0211 126.552 82.6052C124.963 82.1892 123.237 82.3156 121.725 82.9587C122.119 84.2115 123.293 84.9667 124.547 85.3569C126.367 85.9233 128.819 85.9953 130.586 85.2785Z" fill="#E08E80"/>
<path d="M132.275 85.9739C133.891 86.2647 135.602 86.0039 137.059 85.2449C138.516 84.4858 139.709 83.233 140.397 81.7411C139.264 81.0772 137.887 81.3065 136.696 81.8596C134.967 82.6627 133.102 84.2563 132.275 85.9739Z" fill="#E08E80"/>
<path d="M124.008 55.5694C124.008 55.739 124.003 55.9033 123.986 56.0674C123.855 57.5398 123.165 58.8479 122.12 59.7729C121.14 60.6542 119.854 61.1906 118.431 61.2071H118.371C115.256 61.2071 112.733 58.6838 112.733 55.5694C112.733 54.4253 113.072 53.3581 113.663 52.4659C114.67 50.9388 116.405 49.9316 118.37 49.9316C121.485 49.9318 124.008 52.4549 124.008 55.5694Z" fill="#C23001"/>
<path opacity="0.35" d="M123.986 56.066C123.855 57.5384 123.165 58.8465 122.119 59.7716C121.014 60.5214 119.744 61.0415 118.43 61.2058H118.37C115.256 61.2058 112.732 58.6824 112.732 55.568C112.732 54.424 113.072 53.3567 113.663 52.4645C114.265 53.0993 114.955 53.6358 115.704 54.09C116.553 54.6046 117.467 54.9986 118.414 55.2941C120.209 55.8526 122.098 56.0439 123.986 56.066Z" fill="#C23001"/>
<path d="M121.859 56.6731C121.906 56.9082 122.009 57.1634 122.231 57.2537C122.397 57.3211 122.589 57.2761 122.747 57.1918C123.068 57.0206 123.289 56.6992 123.407 56.3553C123.525 56.0112 123.55 55.643 123.56 55.2795C123.566 55.0237 123.564 54.7592 123.462 54.5247C123.092 53.6776 122.465 54.3119 122.179 54.8113C121.859 55.3682 121.733 56.0408 121.859 56.6731Z" fill="#FFE4E0"/>
<path d="M119.349 51.1923C119.273 51.363 119.32 51.5694 119.428 51.722C119.536 51.8747 119.695 51.9825 119.857 52.0754C120.221 52.284 120.617 52.4354 121.027 52.5223C121.2 52.5589 121.379 52.584 121.551 52.5444C121.722 52.505 121.886 52.3891 121.938 52.221C121.989 52.0563 121.926 51.8773 121.84 51.7279C121.517 51.1671 119.767 50.2532 119.349 51.1923Z" fill="#923EFF"/>
<path d="M117.326 59.3132C116.137 57.7688 114.425 56.6345 112.539 56.1407C110.653 55.647 108.605 55.797 106.811 56.5602C107.278 58.0469 108.672 58.9431 110.16 59.4061C112.32 60.0785 115.23 60.1641 117.326 59.3132Z" fill="#E08E80"/>
<path d="M119.331 60.1385C121.25 60.4836 123.28 60.1743 125.009 59.2734C126.738 58.3726 128.154 56.8857 128.97 55.1153C127.626 54.3273 125.991 54.5996 124.578 55.2559C122.526 56.209 120.313 58.1001 119.331 60.1385Z" fill="#E08E80"/>
<path opacity="0.23" d="M139.847 71.9752C138.834 72.2161 137.717 72.0027 136.995 71.2582C135.292 72.8619 132.824 73.6063 130.52 73.2177C128.21 72.8235 126.13 71.302 125.052 69.222C123.574 71.5319 119.726 71.7344 118.013 69.5887C116.688 71.8438 114.411 73.5789 111.828 74.0003C109.244 74.4162 106.42 73.4037 104.876 71.291C101.691 74.6135 95.7467 74.6792 92.4898 71.4333C89.9392 74.3999 85.1281 75.0951 81.844 72.9659C81.844 73.0262 80.0376 74.5642 79.857 74.6736C79.1072 75.1497 78.2587 75.5111 77.3611 75.5712C76.5073 75.6259 75.8122 75.5219 75.2483 75.2866C75.6972 70.2345 76.4305 65.4233 77.6458 64.0003C82.5335 58.275 132.567 57.1528 137.318 64.2795C138.681 66.3321 139.447 69.0907 139.847 71.9752Z" fill="#FFA368"/>
<path d="M83.691 60.3906C81.2241 60.7981 78.838 61.8749 77.0538 63.6265C75.2697 65.3782 74.1304 67.8279 74.1623 70.328C74.1726 71.1415 74.347 72.0323 74.9819 72.541C75.2785 72.7787 75.6476 72.9074 76.0171 72.9961C78.4504 73.5809 81.1991 72.4317 82.4918 70.2888C82.9256 71.1753 83.7616 71.6281 84.6852 71.9756C85.6089 72.3231 86.6123 72.403 87.599 72.3893C88.4306 72.3778 89.2794 72.2972 90.0388 71.9579C91.4907 71.3089 92.3736 69.8443 93.165 68.4646C94.198 70.5486 96.6987 71.684 99.0221 71.5784C101.346 71.4728 103.533 69.9801 104.555 67.8912C105.911 70.4231 109.254 72.0054 112.104 71.6512C114.954 71.297 117.481 69.2076 118.503 66.5238C118.96 67.6738 120.233 68.3671 121.47 68.3759C122.707 68.3846 123.889 67.8066 124.845 67.0206C124.996 66.8957 125.153 66.7609 125.345 66.7201C125.837 66.6157 126.206 67.1403 126.462 67.5735C127.513 69.3556 129.195 70.8666 131.228 71.2526C133.261 71.6387 135.602 70.6514 136.368 68.7295C136.612 70.1858 139.026 70.5828 140.294 69.8258C141.561 69.0688 142.027 67.3711 141.709 65.9291C141.31 64.1168 139.894 62.6575 138.258 61.7822C136.621 60.9071 134.769 60.5356 132.94 60.2189C119.032 57.8111 104.774 57.9701 90.7379 59.4611C88.571 59.6915 85.841 60.0353 83.691 60.3906Z" fill="#FFE4E0"/>
<path d="M82.101 66.1044C81.4461 66.7593 80.6203 66.9952 80.2565 66.6314C79.8927 66.2677 80.1286 65.4417 80.7836 64.7869C81.4385 64.132 82.2643 63.8961 82.6281 64.2599C82.9919 64.6236 82.7558 65.4494 82.101 66.1044Z" fill="#923EFF"/>
<path d="M128.271 64.2383C128.776 65.015 128.835 65.8718 128.404 66.1523C127.972 66.4327 127.213 66.0303 126.709 65.2539C126.204 64.4772 126.145 63.6204 126.576 63.3401C127.007 63.0595 127.766 63.4616 128.271 64.2383Z" fill="#923EFF"/>
<path d="M106.138 62.1215C105.483 62.7764 104.657 63.0123 104.293 62.6485C103.929 62.2848 104.165 61.4588 104.82 60.8038C105.475 60.1489 106.301 59.913 106.665 60.2768C107.029 60.6407 106.793 61.4665 106.138 62.1215Z" fill="#923EFF"/>
<path d="M90.8991 63.7363C90.097 63.2733 89.6555 62.5366 89.9126 62.0911C90.1698 61.6453 91.0288 61.6597 91.8307 62.1227C92.6329 62.5857 93.0744 63.3224 92.8173 63.7679C92.5599 64.2136 91.7013 64.1993 90.8991 63.7363Z" fill="#C23001"/>
<path d="M135.618 65.2034C134.816 64.7403 134.374 64.0037 134.632 63.5581C134.889 63.1126 135.748 63.1267 136.55 63.5898C137.352 64.0528 137.793 64.7895 137.536 65.235C137.279 65.6805 136.42 65.6664 135.618 65.2034Z" fill="#C23001"/>
<path d="M112.21 67.3704C111.408 66.9074 110.967 66.1707 111.224 65.7252C111.481 65.2797 112.34 65.2938 113.142 65.7568C113.944 66.2198 114.386 66.9565 114.128 67.402C113.871 67.8476 113.012 67.8334 112.21 67.3704Z" fill="#C23001"/>
<path d="M99.1288 68.2998C98.306 68.7251 97.4476 68.6994 97.2113 68.2424C96.975 67.7853 97.4504 67.0699 98.2732 66.6447C99.096 66.2192 99.9544 66.2451 100.191 66.7021C100.427 67.1592 99.9514 67.8746 99.1288 68.2998Z" fill="#FF9BBF"/>
<path d="M119.043 62.7794C118.22 63.2048 117.362 63.1789 117.126 62.7219C116.889 62.2648 117.365 61.5494 118.187 61.1242C119.01 60.699 119.869 60.7246 120.105 61.1817C120.341 61.6387 119.866 62.3539 119.043 62.7794Z" fill="#FF9BBF"/>
</svg>
